# xmcd
#
# Track frame offsets: 
#        150
#        16914
#        32450
#        45448
#        62302
#        73179
#        84856
#        99165
#        109641
#        122085
#        136289
#        148721
#        157972
#        171272
#
# Disc length: 2420 seconds
#
# Revision: 3
# Processed by: cddbd v1.5.2PL0 Copyright (c) Steve Scherf et al.
# Submitted via: ExactAudioCopyFreeDBPlugin 1.0
#
DISCID=a609720e
DTITLE=Pierre Perret - Çui-là
DYEAR=2011
DGENRE=Variété française
TTITLE0=Çui-là
TTITLE1=La vivouza
TTITLE2=Je te tue
TTITLE3=Parfois
TTITLE4=L'amour c'est comme Jésus
TTITLE5=Dealer
TTITLE6=Le monsieur qui vend des canons
TTITLE7=La charcuterie
TTITLE8=Mourir du tabac
TTITLE9=La Mondialisation
TTITLE10=Je ne suis jamais allé aux putes
TTITLE11=Pour faire une bonne guerre
TTITLE12=Loulou
TTITLE13=Une minute de soleil en plus
EXTD=Intégrale 1957 - 2011
EXTT0=
EXTT1=
EXTT2=
EXTT3=
EXTT4=
EXTT5=
EXTT6=
EXTT7=
EXTT8=
EXTT9=
EXTT10=
EXTT11=
EXTT12=
EXTT13=
PLAYORDER=
